<svg xmlns="http://www.w3.org/2000/svg" width="20" height="20.241" viewBox="0 0 20 20.241"><path d="M10.008,0A10.131,10.131,0,0,0,6.359,19.534a9.835,9.835,0,0,1,.033-2.9c.181-.791,1.17-5.027,1.17-5.027a3.715,3.715,0,0,1-.3-1.5c0-1.407.807-2.455,1.812-2.455a1.266,1.266,0,0,1,1.269,1.423,20.165,20.165,0,0,1-.832,3.371A1.467,1.467,0,0,0,11,14.274c1.779,0,3.147-1.9,3.147-4.627A3.969,3.969,0,0,0,9.959,5.535,4.353,4.353,0,0,0,5.437,9.921a3.974,3.974,0,0,0,.741,2.305.3.3,0,0,1,.066.291c-.074.316-.247,1.007-.28,1.149-.041.183-.148.225-.338.133-1.252-.591-2.035-2.43-2.035-3.92,0-3.188,2.29-6.117,6.614-6.117A5.9,5.9,0,0,1,16.376,9.6c0,3.487-2.175,6.292-5.189,6.292A2.652,2.652,0,0,1,8.9,14.731L8.27,17.137a11.068,11.068,0,0,1-1.244,2.655,9.957,9.957,0,0,0,2.965.449A10.061,10.061,0,0,0,20,10.129,10.04,10.04,0,0,0,10.008,0Z" fill="#f3f3f3"/></svg>