<svg xmlns="http://www.w3.org/2000/svg" width="18" height="18" viewBox="0 0 18 18"><g transform="translate(-15 -15)"><path d="M1,0H3A1,1,0,0,1,4,1V3A1,1,0,0,1,3,4H1A1,1,0,0,1,0,3V1A1,1,0,0,1,1,0Z" transform="translate(15 15)"/><path d="M1,0H3A1,1,0,0,1,4,1V3A1,1,0,0,1,3,4H1A1,1,0,0,1,0,3V1A1,1,0,0,1,1,0Z" transform="translate(22 15)"/><path d="M1,0H3A1,1,0,0,1,4,1V3A1,1,0,0,1,3,4H1A1,1,0,0,1,0,3V1A1,1,0,0,1,1,0Z" transform="translate(29 15)"/><path d="M1,0H3A1,1,0,0,1,4,1V3A1,1,0,0,1,3,4H1A1,1,0,0,1,0,3V1A1,1,0,0,1,1,0Z" transform="translate(15 22)"/><path d="M1,0H3A1,1,0,0,1,4,1V3A1,1,0,0,1,3,4H1A1,1,0,0,1,0,3V1A1,1,0,0,1,1,0Z" transform="translate(22 22)"/><path d="M1,0H3A1,1,0,0,1,4,1V3A1,1,0,0,1,3,4H1A1,1,0,0,1,0,3V1A1,1,0,0,1,1,0Z" transform="translate(29 22)"/><path d="M1,0H3A1,1,0,0,1,4,1V3A1,1,0,0,1,3,4H1A1,1,0,0,1,0,3V1A1,1,0,0,1,1,0Z" transform="translate(15 29)"/><path d="M1,0H3A1,1,0,0,1,4,1V3A1,1,0,0,1,3,4H1A1,1,0,0,1,0,3V1A1,1,0,0,1,1,0Z" transform="translate(22 29)"/><path d="M1,0H3A1,1,0,0,1,4,1V3A1,1,0,0,1,3,4H1A1,1,0,0,1,0,3V1A1,1,0,0,1,1,0Z" transform="translate(29 29)"/></g></svg>