<svg xmlns="http://www.w3.org/2000/svg" width="26" height="26" viewBox="0 0 26 26"><g transform="translate(-444 -763)"><path d="M1,0H3A1,1,0,0,1,4,1V3A1,1,0,0,1,3,4H1A1,1,0,0,1,0,3V1A1,1,0,0,1,1,0Z" transform="translate(455 763)"/><path d="M1,0H3A1,1,0,0,1,4,1V3A1,1,0,0,1,3,4H1A1,1,0,0,1,0,3V1A1,1,0,0,1,1,0Z" transform="translate(466 763)"/><path d="M1,0H3A1,1,0,0,1,4,1V3A1,1,0,0,1,3,4H1A1,1,0,0,1,0,3V1A1,1,0,0,1,1,0Z" transform="translate(444 774)"/><path d="M1,0H3A1,1,0,0,1,4,1V3A1,1,0,0,1,3,4H1A1,1,0,0,1,0,3V1A1,1,0,0,1,1,0Z" transform="translate(455 774)"/><path d="M1,0H3A1,1,0,0,1,4,1V3A1,1,0,0,1,3,4H1A1,1,0,0,1,0,3V1A1,1,0,0,1,1,0Z" transform="translate(466 774)"/><path d="M1,0H3A1,1,0,0,1,4,1V3A1,1,0,0,1,3,4H1A1,1,0,0,1,0,3V1A1,1,0,0,1,1,0Z" transform="translate(444 785)"/><path d="M1,0H3A1,1,0,0,1,4,1V3A1,1,0,0,1,3,4H1A1,1,0,0,1,0,3V1A1,1,0,0,1,1,0Z" transform="translate(455 785)"/></g></svg>